PathFileType	4	(X/Y/Z)	/Users/niels/Desktop/University/Third Semester/Perception and Action/Exam/Gymnastics Motion Tracking/Code for Gym Tracking/Analyzed Data/Webcam_Backflip/id1_1_baseline_Sports2D/id1_1_baseline_Sports2D_px_person00.trc
DataRate	CameraRate	NumFrames	NumMarkers	Units	OrigDataRate	OrigDataStartFrame	OrigNumFrames
29.928057553956833	29.928057553956833	10	22	m	29.928057553956833	312	417
Frame#	Time	Hip			RHip			RKnee			RAnkle			RBigToe			RSmallToe			RHeel			LHip			LKnee			LAnkle			LBigToe			LSmallToe			LHeel			Neck			Head			Nose			RShoulder			RElbow			RWrist			LShoulder			LElbow			LWrist		
		X1	Y1	Z1	X2	Y2	Z2	X3	Y3	Z3	X4	Y4	Z4	X5	Y5	Z5	X6	Y6	Z6	X7	Y7	Z7	X8	Y8	Z8	X9	Y9	Z9	X10	Y10	Z10	X11	Y11	Z11	X12	Y12	Z12	X13	Y13	Z13	X14	Y14	Z14	X15	Y15	Z15	X16	Y16	Z16	X17	Y17	Z17	X18	Y18	Z18	X19	Y19	Z19	X20	Y20	Z20	X21	Y21	Z21	X22	Y22	Z22
312	10.424999999999999	1.61129947483675	-0.5209795613854585	0.0	1.546700497970098	-0.530153211193686	0.0	1.5477537959483623	-0.751431750046345	0.0	1.6515143780562127	-0.9284422596157288	0.0	1.5953816238884941	-0.9855109799768202	0.0	1.5838681222862314	-0.9646857123412722	0.0	1.680937630495059	-0.9299418763260052	0.0	1.6720605475057115	-0.531605728565187	0.0	1.6416177271317294	-0.7738228920794327	0.0	1.6274402901289429	-1.0179924835909828	0.0	1.607892648102408	-1.0474560037372793	0.0	1.646429883092575	-1.05049123111054	0.0	1.6295884535229093	-1.0393949493489487	0.0	1.615919500965113	-0.1489444036968378	0.0	1.6024228682836978	0.010151966007729928	0.0	1.589235723964711	-0.07029956049012034	0.0	1.4987261071046027	-0.22679188342154666	0.0	1.472551398735198	-0.3839876383116805	0.0	1.4833641015006833	-0.4983097162423156	0.0	1.7516173254198728	-0.19481148887160696	0.0	1.7897808880051593	-0.3805804530822172	0.0	1.793864189475704	-0.5391113989690833	0.0
313	10.458413461538461	1.6187592258954586	-0.5207342941294933	0.0	1.5557107579768836	-0.531211754009367	0.0	1.5627868925998627	-0.7531188934600661	0.0	1.6740885960524523	-0.9353558449125413	0.0	1.611217753430041	-0.9902303577827398	0.0	1.6023382633667007	-0.9688767623765303	0.0	1.7039679323412171	-0.9362545334600515	0.0	1.6783466921956933	-0.5304867998148772	0.0	1.6472582338920854	-0.7733815247564317	0.0	1.6402255625849715	-1.0212734964177135	0.0	1.6139131642662305	-1.0520015597087782	0.0	1.6530079851010842	-1.0551654724379866	0.0	1.6465255450500076	-1.0451821901232368	0.0	1.6191676769372487	-0.15113982427728523	0.0	1.6046295139980602	0.009063597645002258	0.0	1.5898890083034845	-0.07203236766479323	0.0	1.5051783977918596	-0.23018665318618153	0.0	1.4800151650422535	-0.38619154588154375	0.0	1.483771248627648	-0.500024393180546	0.0	1.7527638479240495	-0.19479192187571373	0.0	1.7922474452109565	-0.38085400283020293	0.0	1.7975534803110127	-0.5398608221061151	0.0
314	10.491826923076923	1.625970119118844	-0.520576457311816	0.0	1.5647252041669724	-0.5319276499253821	0.0	1.5780700437991109	-0.7564620982480033	0.0	1.6912999809118425	-0.947133891141125	0.0	1.6179834404558273	-0.998593879463008	0.0	1.6143594463082356	-0.9776512518788361	0.0	1.7213532767659048	-0.9487551743384753	0.0	1.6839687625010815	-0.5292441681019932	0.0	1.652803927895487	-0.7728469162051922	0.0	1.6530287419209126	-1.0226691374410066	0.0	1.6168802000616225	-1.054799073187271	0.0	1.6561852036657996	-1.0583801346815938	0.0	1.6640654989971424	-1.0486676812029854	0.0	1.62196541742934	-0.1535442236274271	0.0	1.6063601318221583	0.007135912045549314	0.0	1.590343640547702	-0.07416188736378361	0.0	1.5118634637195028	-0.2342955996324815	0.0	1.4875032426622006	-0.3899226143894464	0.0	1.484405039001358	-0.503306527798605	0.0	1.7533109383989933	-0.19518386626060855	0.0	1.7943182038834473	-0.3812717582254169	0.0	1.8003248745008915	-0.5401282363174686	0.0
315	10.525240384615385	1.6329769369380407	-0.520599001930543	0.0	1.573794720812715	-0.5323137923294013	0.0	1.5930642255340788	-0.76058772446457	0.0	1.7028863477181522	-0.9605524339013701	0.0	1.6177923176753368	-1.0079821916559832	0.0	1.621194990543926	-0.9883408384391467	0.0	1.7334744187686533	-0.9643273706577495	0.0	1.68891105624033	-0.528033959817436	0.0	1.658326218135705	-0.7722376255099723	0.0	1.6658285692119998	-1.0221480853472897	0.0	1.61687553139089	-1.0553400634269834	0.0	1.6562199276754814	-1.0597861583884203	0.0	1.681625661116439	-1.0494737988113838	0.0	1.6242843416768096	-0.15612835668322642	0.0	1.6074099614343043	0.004352040969095144	0.0	1.5905181785141536	-0.07670882366236813	0.0	1.5188520719190828	-0.23888084339726	0.0	1.4951310628397068	-0.39476251071805074	0.0	1.4850776019937575	-0.508107534563095	0.0	1.753402352507372	-0.195829811140783	0.0	1.7960227989416009	-0.38172701318911395	0.0	1.8021711113051626	-0.5400696471887135	0.0
316	10.558653846153845	1.6399470838943726	-0.5207532864035905	0.0	1.582997319888743	-0.532339304933464	0.0	1.6067861901995937	-0.7641473170527299	0.0	1.7089343326389597	-0.972110645638878	0.0	1.6135738790276668	-1.0154969748819163	0.0	1.6242341214271943	-0.9975314141484911	0.0	1.7409234710230321	-0.9792512158664591	0.0	1.6933107685596815	-0.5269537531922811	0.0	1.6639230353001302	-0.7715966784971297	0.0	1.6786443783573801	-1.0201555335749186	0.0	1.615440871711997	-1.054006768656895	0.0	1.654534099355209	-1.0597102477071227	0.0	1.6984257502457725	-1.0480042556152656	0.0	1.6261796623640759	-0.15878329233866773	0.0	1.6076027441375296	0.000978191621818989	0.0	1.5902096369052174	-0.07958065169390999	0.0	1.5262117889341211	-0.24336859040078374	0.0	1.5029832063691686	-0.3998796512137421	0.0	1.4859271774194054	-0.5139959162257961	0.0	1.7531019307162148	-0.19653427053212255	0.0	1.797261835384145	-0.38203749219698513	0.0	1.80297303641072	-0.5397493093002314	0.0
317	10.592067307692307	1.6469888999389226	-0.5208748638687297	0.0	1.5923725759607552	-0.5318865783103488	0.0	1.6186126619841708	-0.7661548913645494	0.0	1.7104197554869554	-0.9794768246413424	0.0	1.6082956947369063	-1.0193385202752472	0.0	1.6249930185531587	-1.00280357222442	0.0	1.744641007246796	-0.9906011962147202	0.0	1.6973998065101854	-0.525956985720767	0.0	1.6695697828654428	-0.770911823174874	0.0	1.6911932673895713	-1.0174449407080401	0.0	1.6141750304206313	-1.0515132292559664	0.0	1.6525891469709875	-1.0587611305758562	0.0	1.713627398616513	-1.0452094251285549	0.0	1.6277339721678277	-0.16125279705149345	0.0	1.606811952429368	-0.0025037221293239625	0.0	1.5892469755006635	-0.0825871308787597	0.0	1.53386727430561	-0.2470755323534227	0.0	1.5111222334802943	-0.404448933790219	0.0	1.4874531058542737	-0.520290461029055	0.0	1.7522673261490387	-0.19699282279943095	0.0	1.7978558704691763	-0.3819149754616473	0.0	1.8025809586784471	-0.5390508168824094	0.0
318	10.62548076923077	1.6539599894100754	-0.5208005988257928	0.0	1.6017837961072063	-0.5308842500382873	0.0	1.6285962855590903	-0.7663162266536391	0.0	1.7091442406583497	-0.9820431735913834	0.0	1.6042491447978828	-1.0193039174850378	0.0	1.624899397480514	-1.0036499467932267	0.0	1.7457718980766768	-0.9971127941850785	0.0	1.7013437996413985	-0.5249193911059641	0.0	1.6751470192920586	-0.7700711335833876	0.0	1.702832738323702	-1.0147459842106572	0.0	1.6140741834845704	-1.0485375170930151	0.0	1.6513874027334106	-1.0575046046150207	0.0	1.7265023041432817	-1.0421380615580278	0.0	1.628996517284396	-0.1632749520537283	0.0	1.604966728426637	-0.005725623443275305	0.0	1.5876221220295548	-0.08558545243936864	0.0	1.541582681671017	-0.24952939214736092	0.0	1.5195633998464555	-0.40800710231295695	0.0	1.490180348975132	-0.5262962266815301	0.0	1.7506945308455224	-0.1968738808554496	0.0	1.7975824888117382	-0.38101366403611403	0.0	1.800839590657561	-0.5377267250932217	0.0
319	10.658894230769231	1.6605316156887855	-0.5204999122125575	0.0	1.610892951877832	-0.5294728792858772	0.0	1.6372152945373777	-0.7649968497401671	0.0	1.7069481045584864	-0.9807094717866705	0.0	1.6023756121856823	-1.0164383503066796	0.0	1.6247660371036599	-1.0011887676497158	0.0	1.7452480239087966	-0.9992588919226656	0.0	1.7051370914018407	-0.5237640209319406	0.0	1.680602819312461	-0.7690326625721644	0.0	1.7130280815683216	-1.012606504194882	0.0	1.615514768099846	-1.0456666523389864	0.0	1.6514539330662703	-1.0563725698362028	0.0	1.7368059975020702	-1.0396475959642653	0.0	1.63000567681458	-0.16476728277102543	0.0	1.602103466318293	-0.00867537229208496	0.0	1.5854555701123478	-0.08860194197653962	0.0	1.549116175904933	-0.25066770052768833	0.0	1.5282118148384585	-0.41058581759183965	0.0	1.494326827839919	-0.5316177496857396	0.0	1.7484203821340811	-0.19601691366001714	0.0	1.796306331908567	-0.37911550551453077	0.0	1.7976292646676313	-0.5355651236024522	0.0
320	10.692307692307692	1.6663844777954318	-0.5201234519958086	0.0	1.6192718711742826	-0.5280023732246585	0.0	1.6449116930868832	-0.7630638876809799	0.0	1.7050038489545039	-0.977381729019416	0.0	1.602333981791171	-1.012578818898138	0.0	1.624711543985636	-0.9975183966029889	0.0	1.7435315446996085	-0.998772029292315	0.0	1.7086464503781373	-0.5225698655268902	0.0	1.6859987960569236	-0.768021115624274	0.0	1.7218206434068166	-1.0115072685122313	0.0	1.618555841566098	-1.0434976640466294	0.0	1.653032959324383	-1.0557300854860867	0.0	1.7450011853833975	-1.0383848685051906	0.0	1.6308229391267852	-0.16584702190500533	0.0	1.5984374103828947	-0.011595150902945935	0.0	1.5829375158773487	-0.09178958661549753	0.0	1.5563129032347263	-0.2507743979397032	0.0	1.5368727543983822	-0.412548428089914	0.0	1.4998284078141184	-0.5362481587037029	0.0	1.7457932732249324	-0.19455041650803684	0.0	1.7941741107177414	-0.37635047976758873	0.0	1.7929199974555798	-0.5325883221143163	0.0
321	10.725721153846154	1.671337331499904	-0.5199230810192585	0.0	1.626516965470757	-0.5268463565678402	0.0	1.65167664480565	-0.76147949783173	0.0	1.7037691089329932	-0.9741457745445262	0.0	1.603264340744687	-1.0096066190702822	0.0	1.624577851501959	-0.9947609229008393	0.0	1.7408209527142615	-0.9976755336038752	0.0	1.7117319887258997	-0.5215636918371754	0.0	1.6913762744062655	-0.7674412611620618	0.0	1.7297148025054296	-1.0117881244208906	0.0	1.6231124385092721	-1.0425134371354272	0.0	1.6562046550697842	-1.0558066926968894	0.0	1.7520042507179188	-1.0386754502370217	0.0	1.6315267676613998	-0.1667334260068015	0.0	1.5943422954961832	-0.014721795990033858	0.0	1.5802997346267316	-0.09528208420301591	0.0	1.5630723252443621	-0.25029189610385794	0.0	1.5453377569285047	-0.4143193515746649	0.0	1.5065517819236687	-0.5403652801022936	0.0	1.7432589054060543	-0.19283942358305955	0.0	1.7916141261336878	-0.37327966705205595	0.0	1.7867865195495505	-0.5291708849092176	0.0
